<?xml version="1.0" encoding="utf-8"?>
<!-- Generator: Adobe Illustrator 19.0.1, SVG Export Plug-In . SVG Version: 6.00 Build 0)  -->
<svg version="1.1" id="Layer_1" xmlns="http://www.w3.org/2000/svg" xmlns:xlink="http://www.w3.org/1999/xlink"  x="0px" y="0px"
	 viewBox="0 0 612 792" style="enable-background:new 0 0 612 792;" xml:space="preserve">
<g>
	<path d="M513.2,511.6c8.4-9.9,15.7-20.5,22.1-31.6c3.3-5.9,5.7-12.3,8.3-18.6c3.5-8.2,5.1-16.7,5.1-25.5c0-7.4-1.8-14.4-5.8-20.7
		c-0.6-1-1.4-2.1-1.7-3.2c-0.7-3.4-3.2-4.1-6.1-4.5c-3.5-0.4-4.9,2.5-6.4,4.6c-3.4,4.5-6.1,9.4-6.9,15.2c-0.6,4.3,1.4,8.4,5.2,10.2
		c4,1.9,8.1,0.1,10.6-3.8c1.9-2.9,1.9-5.6,0.5-8.6c-0.9-2-4.1-3.7-6.1-3.1c-3.5,1.1-6,3.8-5.6,7.1c0.3,2.7,2.2,4.9,4.8,4.6
		c1.3-0.1,2.6-1.5,3.7-2.6c0.4-0.4,0-1.6-0.1-2.7c-0.9,0.5-1.1,0.6-1.3,0.7c-1,0.4-2,0.7-3,1.1c-0.2-1.1-1-2.4-0.6-3.1
		c0.5-0.8,2-1.5,3-1.3c2.6,0.3,4.3,3.3,3.7,5.7c-0.8,2.7-4.2,4.4-6.9,3.5c-2.6-0.9-4-2.9-4.2-5.5c-0.2-2.5,0.6-4.9,2.8-6.6
		c2.5-2,5.3-2.9,8.2-1.2c2.9,1.7,3.9,4.4,3.8,7.7c-0.1,4.5-3.2,8.6-7.5,9.7c-4.4,1.1-8.2,0.5-11-4c-2.4-3.8-1.7-7.7-0.9-11.6
		c1.3-6.4,5.3-11.3,9.3-16.5c-8.3-2.6-15.1,0.4-20.7,5.7c-6,5.5-7.5,12.5-3.5,20.3c-3.5-1.9-4.3-7.9-2.4-14.5
		c-2.3,1.3-6.2,6.2-7.2,10.2c-1,3.9-1.2,8.1-1.7,12.1c-0.2,0-0.5,0.1-0.7,0.1c-0.1-1.9-0.6-3.8-0.4-5.6c0.7-7,3.5-13.1,9-18.5
		c-3.2,0-5.8-0.8-6.5-3.5c-0.9-3.4-0.9-7.1,1.9-9.8c1.9-1.9,4.2-3.5,6.4-5.3c-2.3-1.1-5-2.4-7.7-3.7c-0.2,0.2-0.4,0.3-0.7,0.5
		c0.5,2.4,1.1,4.7,1.6,7.1c-0.2,0.1-0.3,0.1-0.5,0.2c-1.2-2.8-2.3-5.5-3.6-8.3c-0.3-0.7-0.6-1.5-1.1-1.8c-3.9-2.5-7.8-4.7-12.5-5.5
		c-6.2-1.1-10.9,1.2-14,6.1c-2.1,3.3-3.5,6.7-2.2,10.8c0.9,2.7,2.3,4.7,5,5.4c2,0.5,6.1-2.1,7.1-4.4c1.8-3.8,1.6-5.7-0.9-8.3
		c-1,0.7-1.9,1.5-2.9,2.1c-0.2,0.1-1.2-0.9-1.3-1.5c-0.2-0.8-0.2-2,0.3-2.5c0.6-0.6,1.8-0.8,2.6-0.6c1.3,0.3,2.5,1.1,3.5,1.7
		c0.8-0.9,1.6-2,2.4-2.9c1.5-1.6,3-0.9,4.5,0.1c1.7,1.1,1.6,2.8,1.3,4.5c-0.1,0.4-0.7,0.8-1.1,0.9c-0.4,0-1-0.4-1.2-0.7
		c-0.2-0.3,0.1-0.9,0.4-1.3c0.2-0.3,0.7-0.5,1.6-1.3c-1.4-0.6-2.4-1.5-3.3-1.3c-1,0.1-2.2,1-2.6,1.9c-0.6,1.3-0.9,2.8-0.9,4.2
		c-0.1,5.2-3.1,9.3-8.1,10.4c-1.4,0.3-3-0.2-4.7-0.3c-0.6,0.5-1.4,1.1-2.2,1.8c-0.1-0.1-0.2-0.3-0.4-0.4c0.5-0.6,0.9-1.1,1.2-1.4
		c-0.9-2.3-1.7-4.3-2.4-6.1c-1.2,4.9-2.1,10.1-3.9,14.9c-1.6,4.3-5.1,7.1-9.7,8.5c-4,1.2-8.9-0.7-8.7-6.3c0-0.8,0-1.6-0.5-2.6
		c-0.4,0.8-0.9,1.5-1.3,2.3c-0.6,1.2-0.1,2.9-2.4,3.2c-0.7,0.1-0.9,2.5-1.7,3.7c-2.3,3.3-4.8,6.6-7.3,9.8c-0.3,0.4-1.3,0.3-1.8,0.4
		c-0.1,1.5-0.2,3-0.4,4.4c-0.2-0.2-0.5-0.3-0.7-0.5c-1.1,1.4-2.7,2.7-3.3,4.4c-1.2,2.8-1.9,5.9-2.8,8.9c-0.1,0.2,0,0.5,0.1,0.8
		c0.1,0,0.2,0,0.2-0.1c0.1-0.1,0-0.2,0.1-0.2c0.1-0.1,0.3-0.2,0.6-0.4c0,1,0,1.8,0,3c-1.4-0.2-2.8-0.4-4.2-0.7
		c-0.3-0.1-0.5-1.3-0.5-1.3c2.4-1,1-2.5,0.5-3.8c-0.2-0.7-0.3-1.4-0.5-2.3c-0.6,0.2-1.2,0.4-2,0.7c-0.2-0.3-0.3-0.5-0.4-0.8
		c-1.8-6.5-0.6-13.1,0.1-19.6c0.2-1.6,1.2-3.2,1.9-4.8c0.1-0.2,0-0.5,0-1c-0.4,0.5-0.7,0.9-1,1.3c-0.2-0.1-0.4-0.2-0.6-0.4
		c0.5-0.8,1-1.7,1.5-2.5c0.4-0.7,1.5-1.3-0.1-2.2c-0.6-0.3-0.7-2-0.5-3c1.1-7.7,2.4-15.4,3.5-23.2c0.1-1-0.2-2.3-0.9-3.1
		c-2.5-3-3.1-7.1-1.1-10.5c0.8-1.3,1.5-3,3.7-1.7c1.7,1,1.5,2.5,0.5,3.5c-0.7,0.8-2.1,0.9-3.2,1.3c-0.3-0.2-0.7-0.4-1-0.6
		c0.6,2.5,1.1,4.9,1.7,7.4c0.3,0,0.6,0,0.9-0.1c0.5-1.8,1.1-3.6,1.7-5.3c0.3-0.8,0.6-2,1.2-2.3c0.5-0.2,1.5,0.6,2.3,1
		c0.3-0.2,0.8-0.6,1.4-1.1c0.2,2.6,0.4,4.8,0.5,7c0.2,0.1,0.5,0.2,0.7,0.2c0.6-2,1.8-4,1.8-6c-0.1-4.6-0.7-9.2-1.1-13.8
		c-0.2-2.3-0.3-4.5-0.5-6.7c-1.4,1.9-2.5,4.2-4.4,5.7c-3.2,2.6-7,3.5-11.2,2.5c-1.9-0.5-4-0.6-6.3-1c0-4.5,0-9.6,0-15.4
		c3.4,4.5,6.7,8.2,12.4,4.8c-2.9-2.4-5.7-4.7-8.6-7.2c-3.3,2-5.7,1.7-7.3-1.9c-0.4-0.9,0-2.8,0.7-3.3c1.2-0.9,2.5-0.1,3.1,1.4
		c0.3,0.7,0.8,1.3,1.3,2c0.7-0.8,1.7-1.5,2-2.5c0.7-1.8,1.1-3.8,1.7-6.1c-5.7-4.6-5.5-11.9-7.8-18.2c0.2-0.1,0.4-0.2,0.7-0.3
		c0.3,1.1,0.5,2.1,0.9,3.7c0.7-3.1,0.7-5.9,1.9-8c1.8-3.1,3.3-6.9,7.7-7.4c1.3-0.1,2.6-0.1,3.9,0.1c1.5,0.2,3.1,1.4,4.3,1
		c3.2-0.9,2.7,1.1,2.7,2.8c0,3.3,0,6.6,0,9.9c-0.3,0.1-0.5,0.2-0.8,0.3c-0.6-0.5-1.2-1-1.7-1.6c-1.6-2.1-4.3-3.1-6.5-2.2
		c-2.4,0.9-2.2,3-2.4,5.1c-0.2,2.8,0.8,4.6,3.1,6.4c3,2.4,6,4.2,10,4.5c2.3,0.2,4.6,1.3,7.2,2c-0.8-2.9-0.4-5.3,2.2-7.6
		c-0.4,1-0.5,1.6-0.7,2.1c-1.1,2.7,0.1,5.3,2.8,6c2.2,0.5,4,1.1,4.3,3.8c0,0.4,0.6,0.8,1,1.1c2.7,2,5.4,4,7.9,5.8
		c1-2.9,2.1-5.8,3.1-8.7c0.8-2.2,2.7-2.2,5.2-2.5c-0.5,1.8-0.9,3.3-1.2,4.4c0.8,1,1.7,2.1,2.7,3.5c3.8-4.4,9-7.2,15.4-8.2
		c-2.5-2.5-3.9-5-2.1-8c3-5.2,7.8-4.7,13.1-4.3c-0.8-0.8-1.8-1.5-2.5-2.4c-0.4-0.4-0.4-1.2-0.6-1.8c-0.4-1.2-0.6-2.4-1.2-3.5
		c-2.4-5.1-3.9-10.7-7.9-15.1c-2.8-3.1-6-5-10.3-4.5c-4.5,0.5-7.9,2.4-9.5,6.9c-0.9,2.4-0.4,6.3,1.2,7.6c2.5,1.9,4.8,2.1,7.9,0.3
		c2.2-1.3,3-3.5,2.3-6.2c-0.1-0.1-0.3-0.3-0.4-0.3c-1.3,0.6-2.6,0.7-2.9-1c-0.1-0.7,0.4-2.1,0.9-2.2c1.3-0.3,2.9-0.8,3.5,1.2
		c0.3,1,0.6,1.9,1,3.1c2.3-1.6,4.4-1.8,6,0.3c1.5,2,1,4.2-1.5,6.7c-0.4-0.9-0.8-1.6-0.8-2.3c0-0.2,1.1-0.5,2.3-1
		c-0.7-1-1.5-2.3-2.4-3.4c-0.2-0.3-1.2-0.2-1.6,0c-1,0.9-1.7,2.1-2.8,2.9c-1.7,1.4-3.4,3.2-5.4,3.8c-3.7,1.2-6.9-0.3-8.9-3.7
		c-0.8,0-1.6,0.1-1.9,0.1c0.7-2.3,1.3-4.6,2-7c-0.1-0.1-0.2-0.2-0.3-0.3c-1.5,1.5-3.1,2.9-4.3,4.6c-3.7,5.2-11.8,7.9-17.7,4.3
		c-2.4-1.5-3.8-5.2-3-8.1c0.7-2.5,4.1-5,6.7-5c3.3,0.1,6.1,2,6.2,5.4c0.1,1.9-1.2,4.5-2.7,5.8c-1.8,1.6-4.2,0.9-6-0.9
		c-1.8-1.9-1.6-4-0.4-5.7c0.7-1,2.7-2.1,3.6-1.8c1.1,0.4,1.9,2.2,2.5,3.5c0.2,0.4-0.9,1.5-1.6,2c-0.3,0.2-1.7-0.4-1.7-0.7
		c-0.1-0.8,0.2-1.7,0.5-2.5c0.1-0.3,0.4-0.4,0.7-0.7c-1.8-1.1-2.8-0.1-3.5,1.1c-0.8,1.3,0.4,4.3,1.7,5c2.1,1.1,3.7,0.5,4.9-1.4
		c1.3-2.1,1.8-4-0.1-6.2c-1.7-1.9-4.4-2.1-6.6-1c-2.4,1.2-3.7,3.8-3.2,6c0.7,2.8,3.4,5,6.4,5.1c4.9,0.3,8.8-1.2,11.8-5.2
		c2.1-2.8,4.8-5.2,7.9-8.4c-5.3,0.7-10.1,1.4-14.9,2.1c-0.2-0.2-0.3-0.3-0.5-0.5c1.2-1.1,2.3-2.2,3.4-3.2c-4.7-2.3-9.6-4.7-12-10
		c-1.8-4-1.1-7.8,1.9-11c2.5-2.7,5.8-3.7,9.2-2.5c4.3,1.5,6.3,4.5,5.7,9.6c-0.3,2.8-4.1,5.4-7.6,5.2c-3.1-0.2-6.1-3.3-5.6-6.3
		c0.5-3.4,3.2-5.6,5.7-5.4c2,0.1,3.7,1.1,3.7,2.9c-0.1,1.7-1.4,3.4-2.3,5c-0.1,0.2-1.7-0.2-2.2-0.7c-0.4-0.4-0.7-1.7-0.4-2.1
		c0.5-0.6,1.5-0.9,2.4-1.2c0.2-0.1,0.6,0.2,0.9,0.3c0.1-2.5-0.9-3.3-3-2.9c-2.4,0.5-3.6,2.2-3.5,4.2c0.1,1.5,1.1,3.5,2.3,4.2
		c1.3,0.8,3.7,0.8,5.1,0.2c3.7-1.8,4.7-5.9,2.6-9c-2.3-3.4-7.7-4.2-10.9-1.6c-3.8,3.2-4.6,8.2-0.9,12.6c5,5.9,11.7,7.7,18.9,8.4
		c-0.6-1.3-1.1-2.6-1.6-3.9c2.3,3.1,3.7,3,6.9,2.1c3-0.8,6.2-0.5,9.5-0.7c0.3-0.9,0.6-1.8,1-2.7c-0.4,4.2,3.5,4.1,5.8,6
		c-0.7-2.4-1.5-4.5-2-6.6c-0.4-1.7-1.2-1.8-2.8-1.7c-3.5,0.1-7.3,0.4-10.6-0.6c-4.4-1.4-5.6-4.2-4.8-7.9c0.5-2.6,4.4-5.6,7.8-5.5
		c2.1,0.1,4.3,0.9,6.3,1.3c0.4-4.7,0.5-9.7-2.4-14.4c-1.9-3-3.6-6.1-7.4-6.7c-1.9-0.3-3.8-0.1-5.5-0.1c1.1-3,4.1-4.2,7.1-2.2
		c4.7,3.2,7.3,8,9.5,13.1c0.2,0.5,0.4,0.9,0.8,1.9c0.5-2.1,0.9-3.8,1.3-5.5c0.4-1.7,0.8-3.4,1.1-5.1c0.9-4.3,2.9-5,6.9-2.3
		c-2.1,1.7-4.7,3.1-6.1,5.3c-1.4,2.2-1.7,5.1-2.7,8.4c2-2.3,3.4-4.2,5.1-5.7c1.6-1.4,3.8-0.7,4.2,1.3c0.5,2.4,0.6,4.9,0.5,7.3
		c-0.1,0.8-1.5,1.9-2.4,2c-0.8,0.1-1.6-1.2-2.4-1.8c0.2-0.2,0.3-0.4,0.5-0.6c0.6,0.3,1.3,0.7,1.9,1c2.5-2.3,2.2-6.1-0.5-8.4
		c-6.2,4-7.8,10.1-4.6,17.9c0.5,1.2,0.8,2.5,1.4,3.6c0.3,0.5,1,0.8,1.5,1.2c0.4-0.5,1-1,1.1-1.5c0.8-2.9,1.7-5.7,5-6.9
		c1.3,3.2-1,5.3-2.7,7.8c5.5,0.1,10.9-0.1,14.7,4.8c3.5,4.5,3.9,9.5,2.3,14.8c1.8-2.6,4.6-4.5,4.6-8.1c0-0.3,0-0.8,0.1-1
		c2.3-3.3,1.5-6-1.7-8.4c0.2-0.2,0.4-0.4,0.6-0.6c1.5,1.1,3.1,2.2,4.6,3.2c1-3.6,2.8-7.3,3.1-11.2c0.3-4.5-2.1-8.2-6.2-10.4
		c-2.6-1.4-7.8,0.2-9.5,3c-0.7,1.1-1.2,2.3-2,3.8c2.7-0.6,4.7,0.2,4.9,2.5c0.1,1.4-0.8,3.4-2,4.4c-1.1,1-4-0.8-4.8-2.6
		c-1.3-3.1,0.3-5.7,1.7-8.3c1-1.7,2.2-3.3,3.3-4.9c0.2,0.4,0.5,0.7,0.7,1.1c-0.3-1.6-1.1-3.3-0.7-4.8c0.3-1.2,1.7-2.4,2.9-3.1
		c0.8-0.5,2.1-0.4,3.1-0.1c0.4,0.1,0.9,1.6,0.7,2.1c-0.3,0.8-1.2,1.5-2,2c-0.4,0.3-1,0.2-1.9,0.9c0.8,0.6,1.5,1.6,2.4,1.7
		c5.9,0.9,9,4.6,10.4,10.1c0,0.1,0.3,0.2,0,0c2.2-4.4,4.3-9,6.7-13.4c1.6-2.8,5.5-3.7,8.7-2.1c-3.7-0.1-5.5,1.1-5.8,4.6
		c-0.2,2-2.3,2.3-4.5,1.1c-1.4,4.3-2.8,8.5-4.1,12.7c-0.1,0.4,0.7,1.4,1.3,1.8c1.4,1,3,1.8,4.7,2.9c1.5-3,4.2-5.4,8-6.2
		c-0.2,3.1-1.9,5-4.7,6.7c-2.6,1.5-4.7,3.9-7,5.9c1.3,1.2,2,1.9,2.8,2.5c-1.7-0.2-3.3-0.5-4.9-0.6c-1.6-0.1-1.9,0.8-1.9,2.2
		c0,4.1,0.3,8.2-0.1,12.2c-0.4,3.3-0.2,5.4,3.2,7.2c3.9,2.1,4.3,9.8-1.5,12.9c-0.5,0.2-0.9,0.5-1.5,0.9c0.5,1.5,0.7,3.2,1.7,4.4
		c1.3,1.6,3.1,2.9,4.9,4.1c1.9,1.3,3.9,2.4,6,3.4c0.6,0.3,1.8-0.1,2.2-0.6c1.7-2.1,3.1-4.4,4.8-6.5c2.6-3.3,4.7-4.7,9.4-6.5
		c0.2-3.1,0.3-6.2,0.8-9.2c0.5-3,1.6-5.8,2.4-8.8c-4-3.7-9.1-4.6-12.1-2c-4.1,3.6-4.8,8.2-1.8,12.7c2.3-2.8,4.6-3,6.3-0.4
		c0.6,0.9,0.9,2.7,0.4,3.2c-1,0.9-2.6,1.8-3.9,1.6c-5-0.6-7-7.4-6-11.7c0.1-0.4,0.2-0.8,0.1-0.4c-1.7-1.1-4-1.8-4.3-3
		c-0.5-1.9,0-4.3,0.5-6.4c0.1-0.4,2.2-0.9,2.7-0.5c0.7,0.5,1,1.9,0.9,2.9c-0.1,1-0.8,1.9-1.2,2.8c0.2,0.2,0.3,0.5,0.5,0.7
		c1.1-0.6,2.4-1,3.3-1.9c3.4-3.2,9.4-2.8,13.7-0.5c0.2,0.1,0.4,0.2,0.9,0.4c-1.3-2.6-2.5-4.9-3.6-7.2c-0.9-1.8-1.9-1.7-2.8-0.2
		c-1,1.4-1.7,3.1-2.5,4.6c-1-3.3,0-6.9,2.3-8.8c0.6-0.5,0.8-1.5,0.9-2.4c0.2-1.1-0.1-2.2,0.1-3.2c0.3-2.3,1.2-4.3,3.5-5
		c1.4-0.4,5.6,3.1,6,4.7c0.4,1.4,1.1,2.9,0.9,4.3c-0.3,2.5,1.3,3.1,2.9,4c2,1.1,4,2.4,6.4,3.9c-1.5-4.8-2.9-9.2-4.3-13.6
		c-1.6-4.8-0.4-6.9,5.4-8.1c-0.9,2.2-1.7,3.9-2.3,5.7c-0.5,1.3-1.2,2.9-1,4.1c0.8,4,2,7.9,3,12c1.1-8.1,2.1-15.9,3.1-23.7
		c-1-0.1-2.6-0.1-4-0.4c-6.7-1.5-10.2-9.9-6.4-15.5c0.8-1.2,2.7-2.4,4.1-2.3c1.6,0.1,3.2,1.1,4,3.2c1.2,3.1,1.3,5.8-0.6,8.3
		c-2,2.6-4.8,2.1-6.1-1c-1-2.2-0.6-4.5,0.8-6.4c1.4-1.9,3.3-1.7,4,0.5c0.5,1.4,0,3.1-0.3,4.7c0,0.2-1.3,0.3-2.1,0.4
		c-0.1-1-0.4-2.1-0.3-3.1c0-0.3,1-0.5,1.9-0.9c-0.4-0.6-0.7-1.4-1.1-1.5c-0.4-0.1-1.1,0.5-1.5,1c-1.5,1.9-1.2,4-0.1,6
		c0.3,0.6,1.7,1.1,2,0.9c1.2-0.7,2.5-1.7,3-2.9c0.5-1.3,0.6-3.2,0-4.4c-0.6-1.3-2-3-3.3-3.2c-1.2-0.2-3.2,1-3.9,2.1
		c-1.8,2.8-1,5.8,0.5,8.5c1.7,3,4.3,4.4,8,4c2.5-0.2,2.9-2,3.6-3.7c0.4-0.8,0.6-1.7,1.6-2.4c-0.3,1.4-0.6,2.8-0.9,4.4
		c2.2-0.6,4.2-1.2,6.9-2c-3.7-2.4-7.2-4.6-11.1-7.1c1.3-0.7,2.5-1.2,3.8-1.9c-2.3-4.9-3.9-10.2-3.4-16c0.3-2.9,1-5.6,3.2-7.7
		c3.7-3.7,7.4-2.5,9.5,1.3c2,3.7,2.5,7.7,0.1,11.6c-1.2,1.9-2.5,3.2-4.8,2.8c-2.4-0.4-3.5-2.3-3.9-4.3c-0.5-2.6-1-5.4,1.3-7.7
		c1.4-1.4,3.1-2,4.4-0.8c1.1,1,1.7,2.9,1.9,4.4c0.1,0.9-0.8,2.2-1.6,2.8c-0.7,0.6-1.9,0.5-2.8,0.7c0-1.3-0.1-2.6-0.1-3.9
		c1,0.1,1.9,0.2,3.4,0.3c1-1.1,0-2.4-1.3-3.4c-1.4-1.1-2.5-0.2-3.4,1c-1.8,2.5-1.9,5.6-0.1,8c1.5,2.1,4.2,2.1,5.8,0
		c2.7-3.3,2.5-8.9-0.4-12.1c-2.2-2.4-6-1.8-7.8,1.2c-2.3,3.7-2.5,7.7-1.5,11.8c1.4,5.7,3.7,11,8.3,15.7c0.1-1.6,0.2-2.8,0.3-3.9
		c0.1,0,0.2,0,0.3,0c0.3,1.1,0.4,2.2,0.8,3.2c0.3,0.6,0.8,1.5,1.3,1.6c3.5,0.7,4.7,4.4,8,5.2c0.2-0.3,0.8-1.1,1.3-1.9
		c-1.3,2.8,0,5.1,1,7.5c0.3,0.7,0.5,1.5,0.5,2.3c0,24.5,0,49,0,73.6c0,0.2-0.1,0.3-0.6,0.6c-0.5-2.7-1.2-5.4-1.4-8.2
		c-0.1-1.5-0.6-2.4-1.9-3.1c-3.3-1.8-6.6-3.1-10.6-2.4c-6.2,1.1-7.9,7.9-7.1,12.2c0.3,1.4,0.8,2.9,1.5,4.1c1.7,2.9,5.1,3.2,7.2,0.8
		c2.5-2.9,2.5-8.5-0.2-11c-1.6-1.5-3.2-1.5-4.4,0.3c-1.4,2.1-1.7,4.6-0.6,7c0.3,0.7,1.2,1.2,1.9,1.6c0.1,0.1,1.1-0.6,1.1-1
		c0-0.6-0.6-1.2-0.8-1.8c-0.2-1.1-0.4-2.2-0.3-3.2c0-0.3,1.5-0.8,1.7-0.6c0.6,0.7,1.1,1.6,1.1,2.4c0,1.3-0.2,2.6-0.7,3.8
		c-1,2.2-2.6,2.4-4.3,0.7c-1.9-2-1.7-7.9,0.2-9.8c2-1.9,4.3-1.9,6.2,0.3c2.7,3.3,2.6,9.5-0.7,12.7c-3.2,3.2-8,1.5-9.5-3.4
		c-1.4-4.6-1.6-9.4,1.9-13.4c1.2-1.4,2.8-2.3,4.2-3.5c4.4-0.9,8.6,0,12.7,2.4c-0.4-2.4-0.7-4.3-0.9-6.2c-0.7-5.5-3.3-9.9-8.1-12.5
		c-4.5-2.4-7.8-0.3-7.8,4.8c0,1.6,0,3.3,0,5.1c5.2,2.8,5.2,2.8,4.3,6.5c-3.4-0.6-3.9-1.5-2.3-4.2c-1.5-0.9-2.7-1.6-3.1,1.1
		c-0.6,4.6-1.3,9.3-2.2,13.9c-1.1,6-2.8,12-3.5,18.1c-0.8,6.8-1.1,13.7-1.1,20.5c0,4,1.1,8,1.7,12c0.2,0,0.5,0,0.7,0
		c1-3,1.9-6,3.2-8.8c2.3-4.9,5-9.6,7.4-14.4c0.3-0.6,0-1.7-0.4-2.5c-2.7-5.9-0.2-11.9,4.7-14.3c3-1.5,7.7-0.8,10.1,1.5
		c0.4,0.4,0.6,1,0.6,1.5c0.1,3.9,0,7.8-0.3,11.7c-0.1-0.7-0.3-1.4-0.4-2.1c-0.1,0.1-0.3,0.1-0.3,0.2c-0.4,2.6-1.6,4.6-4.1,5.9
		c-0.7,0.3-1.4,1.8-1.1,2.4c1.2,3,2,6.5,4.1,8.6c3.5,3.5,1.5,7.3,1.6,11.2c-2.1-1.9-4.1-3.9-6.3-5.5c-1.7-1.2-2.9-3.1-5.5-3.2
		c-3.3,0-4,2.4-5.2,4.4c-0.9,1.5-1,3.2-0.3,5.1c0.8,2,0.7,4.3,0.7,6.5c0.1,7.2,0.7,14.3-0.4,21.5c-0.9,5.6-1.1,11.3-1.7,16.9
		c-0.4,3.4-1,6.7-1.6,10c-0.8,4.5-1.7,9-2.6,13.5c-0.6,3.2-1,6.3-1.6,9.5c-1.6,8.6-2.3,17.2-1.1,25.8
		C539.4,511.6,526.3,511.6,513.2,511.6z M558.5,283.3c-0.4,0.9-1.1,1.8-1.2,2.8c-0.2,1.8-0.1,3.6-0.1,4.9c2.2,2.7,4.4,5.3,6.4,7.6
		c0.1-0.9,0.7-2.5,0.4-3.8c-0.3-1.2-1.6-2.1-2.3-3.2c-0.7-1.2-1.7-2.6-1.7-3.9C560,286,559.6,284.5,558.5,283.3
		c0.3-0.2,1-0.1,1.1-0.4c1.1-1.6,2-3.3,2.9-4.8C558.1,279.6,557.7,280,558.5,283.3z M538.7,323.6c-0.3,2.2-0.5,4.5-0.8,6.7
		c6.3,0.5,9.5,4.4,12.3,8.9c-0.2-1.7-0.7-3.2-1-4.8c-0.2-1.8-0.4-3.4-2.3-4.3c-0.5-0.2-0.7-1-0.9-1.5c-1.5-3.8-2.6-4.5-6.6-4.4
		C539.3,324.1,539,323.7,538.7,323.6c2.2-0.3,4.5-0.6,7.3-0.9c-1.9-3.1-3.6-5.9-5.4-8.7c-0.3,0-0.7,0.1-1,0.1
		C539.4,317.3,539.1,320.4,538.7,323.6z M420.8,425.7c1.8-2,3.5-3.7,4.9-5.7c2.5-3.4,4.9-6.9,7.2-10.4c1.2-1.8,2.6-1.9,4-0.4
		c1.5,1.6,2.8,3.3,4.2,4.9c1-0.7,1.8-1.3,2.7-1.9c3-2.1,7.8-0.6,8.7,3.6c0.8,3.5-1.6,7.5-4.9,8.1c-2.5,0.4-5.1-1.7-5.3-4.8
		c-0.2-1.9,0.7-3.7,2.9-4.3c2.1-0.6,3.4,0.5,3.9,2.2c0.2,0.7-0.2,1.9-0.6,2.6c-0.3,0.4-1.5,0.7-1.8,0.4c-0.5-0.4-0.7-1.3-0.9-2
		c-0.1-0.6,0-1.2,0-2.2c-1.7,1-2.7,2-2.1,3.8c0.5,1.8,1.4,3.3,3.6,3.1c2.6-0.2,4.3-2.3,4.4-5.2c0.1-2.8-1.2-4.5-4-4.9
		c-2.4-0.4-4.1,0.8-5.6,2.5c-1.9,2.3-2.2,6.4-0.6,8.3c1.6,2,4.6,2.7,7.2,1.6c5.2-2.2,8.2-6.5,9.4-11.8c1.1-4.8,1.6-9.8,2.4-14.7
		c-0.2-0.2-0.3-0.3-0.5-0.5c-3.8,4.1-7.7,8.3-11.5,12.4c-0.2,0-0.4-0.1-0.6-0.1c0.3-1.8,0.6-3.7,0.9-5.6c-2.3,0.5-4.6,1-6.9,1.4
		c-3.7,0.7-11.5-0.6-13.4-5.4c-0.9-2.4-1.2-5.2-1.1-7.9c0.1-5.8,6.7-10.8,12.2-9.3c3.5,0.9,5.4,3.9,5.5,7c0.1,2.4-1.3,5.2-2.7,7.2
		c-1.9,2.6-5.9,2.9-8.1,1.3c-2.5-1.8-3.7-5.6-2-8.4c1-1.5,2.9-2.7,4.7-3.4c0.6-0.3,2.6,0.8,2.8,1.6c0.4,1.7,0.4,3.7,0,5.4
		c-0.1,0.5-2.2,1.2-2.9,0.8c-1.4-0.8-1.5-2.3-0.4-3.6c0.5-0.5,1.3-0.8,2-1.2c-0.5-2-1.8-2.2-3.3-1.2c-1.8,1.2-2.8,2.9-2.4,5.1
		c0.3,2.2,1.5,4,3.8,4.5c3.6,0.9,8.6-3.9,7.8-7.6c-1.2-5.3-5.6-8.6-11-5.2c-3,1.9-5.5,6.8-4.8,10.1c0.8,4.2,4.4,7.7,8.5,8
		c7.7,0.4,14.6-1.7,20.7-6.6c-1.4-0.8-2.6-1.5-3.8-2.2c3.9,0.9,6.6,0.1,7.6-4.1c0.1-0.3,0.4-0.7,0.7-0.7c3.6-0.8,4.6-4.7,7.4-5.9
		c-0.4-1.3-0.6-2.3-0.9-3.3c2.5,4.7,6.1,0.4,9.4,1.8c-0.7-0.8-0.9-1.1-1.2-1.3c-5.3-4.1-10.6-8.1-15.8-12.3c-1.1-0.9-2-2.2-2.9-3.3
		c-1.6-2.2-2.6-5.1-6.4-3.7c-0.8,0.3-1.9,0-2.8-0.3c-2.2-0.8-5-0.7-6.4-3.3c2.5-0.5,4.8-1,7.5-1.5c-3.6-2.1-7.1-3-10.7-2.4
		c-3.2,0.5-5.3,2.6-6.6,5.7c-0.1-1.9,0.1-3.6,0.5-5.3c0.6-2.3,2.8-2.5,4.6-2.6c1.7-0.1,3.4,0.3,5.8,0.5c-7.1-3.3-13.2-0.4-16.5,4.6
		c-1.4,2.1-0.8,5.4,1.1,7c1.8-2.4,3.2-2.7,4.5-0.9c1.4,1.9,0.4,4.4-2.1,4.6c-1.7,0.1-3.4-0.5-4.8-0.8c0.4,5.2,1,10.8,1.2,16.3
		c0.1,3.1-0.6,6.3-3.9,8c-0.3,0.2-0.7,0.6-0.8,1c-0.6,3.1-1.1,6.3-1.7,9.4c0.2,0.1,0.4,0.1,0.5,0.2c0.9-2.8,1.9-5.7,2.8-8.5
		c0.2,0.1,0.4,0.1,0.6,0.2c-1,6-2.1,12-3.1,18c-0.4,0-0.7-0.1-1.1-0.1c0-1.8,0-3.5,0-5.3c-0.2,0-0.4,0-0.6,0
		c-0.8,4.4-1.6,8.9-2.4,13.3c0.3,0.1,0.7,0.1,1,0.2c0.6-2.6,1.1-5.2,1.7-7.8c0.4,0.1,0.8,0.1,1.2,0.2
		C421.2,417.2,421,421.4,420.8,425.7z M508.2,358.8c-2.4-2.5-4.2-4.5-6.3-6.3c-0.9-0.8-2.3-1.5-3.4-1.3c-4.8,0.9-9.3,2.5-13.4,5.4
		c-3.7,2.6-5.6,7.3-4.2,10.8c1.3,3.2,3.5,5.9,8.2,5.6c3-0.2,6.1-2.7,6.5-5.7c0.4-3-1.5-5.9-4.4-6.9c-2.2-0.7-5.4,0.8-6.2,3.1
		c-1,2.7,0.1,5.1,2.7,6.1c2.1,0.8,3.2,0.1,3.5-2.3c-0.6,0-1.2-0.1-1.8-0.1c-1.7,0-2.1-1.2-1.6-2.3c0.3-0.8,1.5-1.3,2.3-1.9
		c1,1.3,2.4,2.4,2.7,3.8c0.3,1-0.6,3.1-1.5,3.4c-1.4,0.6-3.5,0.7-4.9,0.1c-2.1-1-3.3-3.2-2.8-5.6c0.6-3,3-5.2,5.7-5.4
		c2.7-0.2,7,2.3,7.1,5c0.1,3.2,1.8,5.7,2.4,8.7c0.4,1.8,0.7,3.7,1.5,5.2c2.5,4.1,5.2,8.1,7.9,12.1c0.2-0.1,0.4-0.2,0.6-0.4
		c-0.4-0.8-0.7-1.7-1.1-2.5c-1-2.2-2.2-4.3-3.1-6.5c-0.4-0.9-0.1-2.1,0-3.1c1.1,0.2,2.3,0.4,3.3,0.7c0.4,0.1,0.8,0.6,1.2,1
		c2.3-6.9,8.2-9.2,13.4-7.6c4,1.2,6.2,7.8,4.4,12c-1.7,3.9-6.7,7-11.5,3.9c-0.5,2.3-0.7,2.3-2.7,1c1.5-2,0.4-4.8-2.6-6.7
		c-0.7,4.5,1.5,7.9,4.5,10.6c5.5,5.1,12.6,6.3,19.8,7c1.4,0.1,1.8-0.6,1.5-2c-1.1-3.9-1.8-7.9-3.1-11.7c-1.5-4.6-3.5-9-5.1-13.5
		c-2-5.6-4.6-10.8-8.7-15.2c-1.4-1.5-2.9-3.1-5.3-2.6c-1.8,0.4-3.5,0.8-5.2,1.1C508.4,356.5,508.4,357.2,508.2,358.8z M498.5,349.3
		c-4-5.6-10.7-8.8-17.5-8.3c-6,0.5-10.1,4.1-11.4,10.1c-0.2,0.9-0.7,1.7-1.1,2.6c-2.2-2.7-0.3-4.7,0.8-6.6c1.2-2,3-3.7,4.7-5.7
		c-5.1,0.7-9.6,2.5-13.5,6.3c3.8,1,5.5,3.8,6.7,6.9c0.4,1-0.4,2.8-1.2,3.9c-0.4,0.5-2.1-0.1-3.2-0.1c0-0.2,0-0.5,0-0.7
		c2.3,0.1,3.7-0.9,2.9-3.1c-0.5-1.6-1.6-3.2-2.9-4.2c-1.8-1.6-3.7-0.7-3.9,1.7c-0.2,3-0.2,6,0,9c0.1,1.4,0.8,3.1,1.8,3.9
		c4.1,3.4,8.4,6.4,13,10c-1-5.6-4.8-10.2-1.1-15.3c2.6,2.5,2.4,5.6,1.8,8.9c-0.5,2.6-1,5.6,1.4,7.3c3.5,2.6,7.4,4.8,11.2,7.1
		c0.4,0.2,1.3,0.5,1.3,0.4c1.6-3.2,3.4,0.2,3.5,0.4c1.1,2.8,3.6,3.7,6,4.6c2.3,0.8,4.6,1.5,6.9,2.3c1.3,0.4,2.5,1,3.8,1.5
		c-2.1-3.4-4.6-6.4-6.8-9.4c-2.6-3.5-6.7-6.3-6.7-11.8c-0.8,0.5-1.1,1.7-1.8,1.9c-2.1,0.7-4.6,2-6.6,1.5c-7.8-1.8-10.3-10-5.2-16.2
		C486,352.7,492.1,350.7,498.5,349.3z M525.6,338.1c-1.7,2.5-3.1,4.6-4.4,6.7c-0.2,0.4,0,1.3,0.4,1.7c4.3,5.3,6.1,11.8,8.6,17.9
		c2,4.9,4.2,9.7,6.3,14.6c0.1,0.3,0.6,0.5,1,0.9c0.7-0.9,1.4-1.5,1.7-2.2c1.6-3.4,3.7-6.7,4.5-10.2c0.8-3.6,0.7-7.6,0-11.3
		c-0.7-3.1-3.1-5.7-4.3-8.7c-2.1-5-4.3-10.1-3.8-15.7c-3.9-0.2-6.7,2.5-6.6,6.2c1.9-0.7,3.8-0.4,4.3,1.7c0.2,0.8-0.9,2.6-1.8,2.9
		C528.8,343.4,526.8,341.9,525.6,338.1z M574.8,317.9c0.4-3,0.8-5.6,1-8.1c0.3-3.1,0.2-6.2,0.6-9.2c0.9-5.8,0.7-11.5-1.3-17
		c-1.2-3.5-4.2-5.7-7.4-5.7c-2.6,0-5.4,2.5-6.6,5.9c-1.3,3.7,0.3,7.5,3.7,8.8c1.7-1.4,3.5-2.7,4.9-3.8c-0.8-1-1.8-1.7-1.8-2.5
		c-0.1-0.9,0.7-1.9,1.1-2.8c0.3,0,0.6,0,0.9,0.1c0.4,0.9,0.9,1.7,1.1,2.7c0.2,1,0,2.1,0,3.1c1,0.1,1.7,0.2,3,0.4
		c-0.9,0.6-1.3,0.8-1.7,1.1c3,2.8,2.6,6.2-1.1,8.7c-0.2-1-0.3-1.8-0.5-2.7c0.7,0,1.4,0,2.2,0c0-0.4,0.2-0.9,0.1-1.3
		c-0.2-1.1-0.4-3.1-0.9-3.2c-1.2-0.2-2.7,0.2-3.8,0.9c-0.8,0.4-1.4,1.6-1.6,2.5c-1.1,6-0.8,12,0.1,18.3
		C570.5,313.1,572.4,315.5,574.8,317.9z M549.5,323.1c2.1-0.6,3.9-1.1,5.6-1.7c0.5-0.2,1-1,1-1.5c0-1.8-0.2-3.6-0.5-5.4
		c-0.1-0.8-0.2-1.6-0.7-2.2c-1.5-2.1-3-4.2-4.8-6c-2.1-2-4.6-3.7-7.2-5.6c-0.8,3.4-1.8,6-2,8.7c-0.1,1.5,0.6,3.3,1.4,4.8
		c1.4,2.4,3.2,4.6,4.9,7.1c0.9-2.5,2.7-4.2,6.3-3.9C550.6,318.3,548.9,319.7,549.5,323.1z M506.1,412.8c2.2-1.7,4.1-3.3,6.2-4.7
		c2.1-1.4,4.4-2.5,6.9-3.9c-2.5-1-4.8-1.9-7.1-2.8c-1.7-0.7-3.4-1.9-5.1-1.8c-6.2,0.3-11.2,5.7-10.4,11.8c0.3,2.2,2,3.4,4.4,3.2
		c-0.1-1.7-0.9-3.4,1.5-4.4C505.2,409.2,504.9,412,506.1,412.8z M489.3,314.8c0.3,0.1,0.5,0.2,0.8,0.3c1.1-2.7,2.3-5.3,3.2-8
		c2.3-7.2-1.8-13.2-7.1-15.3c-2.3-0.9-4,0.1-5.1,0.8C483.9,300.2,486.6,307.5,489.3,314.8z M492.1,340.7c-1.5-2.3-3.2-4.8-4.8-7.4
		c-2.6-4.2-5.1-5.4-9.8-4.5c-2.4,0.5-4.4,1.8-5.1,4.3c-0.5,1.8-0.2,3.5,1.8,4.9c0.3-1.9,1.1-3.1,3.1-2.3c2.1,0.8,1.5,2.1,0.8,3.3
		C482.7,339.6,487.5,340.2,492.1,340.7z M522.1,378.7c-0.1-1.7-1.6-3-3.7-1.9c-1.3,0.7-2.6,1.9-3.3,3.2c-0.9,1.6-1.4,3.8,0.2,5.3
		c1.2,1.2,3.2,2.7,4.6,2.4c5.1-0.9,7.4-4.1,6.6-9.7c-0.5-4-5.2-6.4-9.5-4.9c-2.8,1-5.3,3-5.8,6.1c-0.2,1.2,1.3,2.8,2,4.1
		c0.6-0.9,0.6-1.6,0.6-2.2c0.2-2.7,2.8-5.5,5.5-6c2.2-0.4,4.4,1.4,4.6,3.7c0.2,2-2.4,6-3.9,5.8c-1.4-0.2-3-1-2-2.7
		C518.6,380.7,520.3,380,522.1,378.7z M425.6,358c2.3-3.6,4.9-6.3,8.7-6.7c3.5-0.4,7.1,0.1,10.1,0.1c-2.5-1.4-4.9-3.9-8.8-4.9
		c-3.6-1-6.1-1.4-8.7,1.5c-0.1-0.2-0.3-0.4-0.4-0.5c1.4-1.7,2.8-3.4,4.4-5.3c-3.3-1-6.5-2-9.7-3c-0.2,0.3-0.4,0.5-0.6,0.8
		C426.6,344.6,425.3,351.2,425.6,358z M462,280c-0.9,0-1.6,0-2.3,0c-3,0-6.1,2.4-6.5,5c-0.4,2.2,1.7,4.7,4.6,5.8
		c3.8,1.5,7.5,0.9,11.3,0c-0.8-3.2-1.6-6.1-2.4-9.1c-0.1,2-1.2,2.8-2.9,2.5C461.7,283.7,460.8,282.3,462,280z M556.6,293.7
		c0.2,4.1,0.8,8,0.6,11.8c-0.2,5.3,2.1,9,6.6,12.3c0-5.3,0-10.2,0-15c-2,2.2-2.6,2.2-4.7,0.6c0.9-0.6,2.4-1,2.8-1.9
		C562.9,298.8,560.2,294.8,556.6,293.7z M551.4,347.1c-2.1-10.5-8.4-16.1-13.1-15.3c1.1,4.7,1.5,9.7,5.7,13.6
		c-0.2-1.2-0.3-1.9-0.4-2.8C546.3,344.2,548.6,345.5,551.4,347.1z M573.1,332.5c0.2-3.9,0.4-7.5,0.7-11c0.4-4.3-2.6-7-6.1-6.2
		c-2.4,3.6,2,7.3-0.9,10.6C568.8,327.9,570.8,330.1,573.1,332.5z M578,376.6c0-1.7,0.2-3.4-0.1-5c-0.2-1.2-0.8-2.6-1.7-3.2
		c-2.8-1.8-6-1.9-8.9-0.2c-2.9,1.7-4.1,4.5-4.1,7.7c0,4.1,1.4,5.3,4.3,4.3c-2.2-2.2-2.7-4.4-1.5-6.6c1.1-2,3-3.1,5.3-3.1
		C574.3,370.4,576.6,372.8,578,376.6z M409.1,343.7c-2.4,2.3-2.5,5.1-1.4,7.9c1.2,3.1,3.8,4.8,6.4,5.5c0.8-1.8,1.5-3.3,2-4.7
		c0.2-0.5,0.4-1.2,0.1-1.6c-0.9-1.5-1.8-3-3-4.2C412.1,345.5,410.6,344.7,409.1,343.7z M482.9,314.3c0.3,0,0.5-0.1,0.8-0.1
		c0.9-5.5-1.4-10.7-2-15.4c-1.7-0.5-3.3-0.5-4-1.3c-1.8-1.9-1.5-4.2,0.2-6.3c-3-0.1-4.2,1.5-3.2,4.1c1.6,4.1,3.3,8.1,5,12.1
		c0.6-0.3,1-0.5,1.8-0.9C482.1,309.4,482.5,311.9,482.9,314.3z M570.6,375c0.3-0.1,0.6-0.2,0.9-0.2c0.7,1.1,2.1,2.2,2.1,3.3
		c0,2.6-2.4,2.3-4.2,2.4c0.4,0.6,0.7,1,0.9,1.4c1.5,2.7,2.6,2.9,4.6,0.4c0.4-0.5,0.8-1,1-1.5c1.1-2.5,0.7-4.9-0.7-7.2
		c-1.2-1.9-3.2-2.1-5.2-1.7c-2.1,0.3-2.9,2-3.2,3.9c-0.3,2,0.9,2.5,2.2,2.6C569.6,377.2,570.1,376.1,570.6,375z M552.9,340.8
		c0.2,0,0.4,0.1,0.6,0.1c0.8-5.9,1.7-11.7,2.5-17.6c-4.3-0.5-5.1,0.2-4.6,3.6c0.1,0.7,0,1.4,0,2.1c-0.1,1.2-0.6,2.4-0.4,3.5
		C551.5,335.3,552.2,338,552.9,340.8z M501.9,315.8c0-4.2,0-8,0-12.7c-3.6,3.4-5.3,7.2-7.4,10.3C497,314.2,499.3,315,501.9,315.8z
		 M497.2,319.2c-2.1,1.9-3.7,4-2.5,6.3c2.8,5.2,6.1,10.2,9.3,15.5c-0.3-2.7-0.5-4.9-1-7.1c-0.3-1.1-1.1-2.2-2-2.9
		c-1.5-1.3-3.3-2.4-3.4-4.7C497.5,324.1,497.3,321.8,497.2,319.2z M535.6,288.4c-0.6,1-1.7,2-1.5,2.7c0.4,1.9,1,4,2.1,5.6
		c0.9,1.1,2.8,1.4,4.3,2.1C540.9,295.5,540.9,295.5,535.6,288.4z M538.9,309.1c0.7-3.4,1.3-6,2-9.4c-2.3,0.1-4.4,0.3-6.9,0.4
		C535.8,303.3,537.2,305.9,538.9,309.1z M505.3,330c0.3,0.1,0.6,0.3,1,0.4c3.1-1.3,4.2-4.1,4-7.1c-0.2-2.8-2.4-4.8-5.7-5.4
		c0.9,1.2,1.3,2,2,2.6c1.9,1.7,2.1,3.9,0.7,5.7C506.4,327.2,505.9,328.7,505.3,330z M456.1,359c-1.6-4.4-2.9-8-4.3-12
		C448.8,350.7,450.4,355.1,456.1,359z M490.3,317.6c0.7,1.4,1.4,2.9,2.2,4.5c2-2.2,3.8-4.3,5.7-6.3
		C495.1,314.2,492.7,315.8,490.3,317.6z M501.8,320.6c-2.4,1.6-4.1,3.5-3.4,5.9c0.4,1.5,2.2,2.7,3.4,4.1
		C501.8,327.1,501.8,324.1,501.8,320.6z M505.8,294.6c4.5,1.3,4.6-2.9,6.8-4.8C507.8,289.2,506.8,290,505.8,294.6z M453.6,348.8
		c1.1,3.4,2.2,6.6,3.2,9.8c0.5-1.8,1.2-4.2,0.4-5c-1.8-1.8,0.1-3-0.1-4.5C456.1,349.1,455.1,349,453.6,348.8z M506.2,378.6
		c-0.2,0.2-0.5,0.3-0.7,0.5c0.8,2.1,1.6,4.1,2.4,6.2c0.1-0.1,0.3-0.1,0.4-0.2c0.1-1.7,0.3-3.4,0.4-5.2
		C507.9,379.6,507,379.1,506.2,378.6z M559,323.4c0,1.4,0,2.6,0,3.7c1.7-0.4,3.1-0.8,4.9-1.3C562.3,325,560.7,324.2,559,323.4z
		 M558.5,318.9c-0.3,3.7,2.8,3.6,5.2,4.5C562,322,560.3,320.5,558.5,318.9z"/>
	<path d="M319.7,435c1.2,0.1,1.8,0.2,2.7,0.3c-0.9,2-5.7,1-3.4,4.8c2.8-2.2,5.8-1,8.8-0.8c0.2,0,0.5-0.2,0.8-0.3
		c-0.3-1-0.7-2-1.1-3.5c1.8,0.6,3.1,1,4.5,1.4c0,0.8,0,1.7,0,2.4c-1.7,0.4-3.4,0.8-5,1.2c0,0.2,0.1,0.3,0.1,0.5
		c3.3-0.2,6.6-0.5,9.9-0.7c0-0.1,0.1-0.2,0.1-0.4c-0.6-0.1-1.3-0.2-1.9-0.4c-0.8-0.2-2.1-0.7-2.1-0.9c0.2-1.1,0.7-2.2,1-3.2
		c0.6,0.2,1.3,0.4,1.8,0.8c0.7,0.5,1.3,1.2,2.1,1.4c0.7,0.2,1.5,0.4,2,0.5c-0.2-1.5-0.2-1.5-5.9-4.4c1.3-0.2,2.6-0.3,4.2-0.5
		c-1.5-8-0.3-15.8,3.6-23.2c-0.6,0.1-1.1,0.3-1.7,0.4c-0.1-0.2-0.3-0.4-0.4-0.6c2.7-0.6,3-3.7,5.9-4.5c2.7-0.7-0.5-2.2-0.3-3.5
		c0.1-0.5-0.2-1-0.3-1.5c0.3-0.1,0.6-0.1,0.9-0.2c0.7,1.3,1.4,2.5,2.1,3.8c0.3-0.1,0.7-0.2,1-0.2c-0.3-1.6-0.5-3.2-0.8-4.9
		c1.2,0,2.2,0,2.7,0c-0.4,1.2-0.8,2.4-1.2,3.6c0.3,0.1,0.6,0.2,0.9,0.3c0.2-0.8,0.3-1.5,0.5-2.3c0.9,0.4,1.7,0.7,3.3,1.4
		c-0.9-1.8-1.4-2.9-1.9-4c0.1,0,0.1,0,0.2,0c-0.3-1.1-0.5-2.2-0.8-3.3c-1.3,0.4-2.3,0.7-3.7,1c2.2-2.4,4.8-3,6.5-1.9
		c0.4-0.8,0.8-1.5,1.3-2.4c-0.6-0.3-1.3-0.7-1.9-1c0.1-0.3,0.2-0.5,0.3-0.5c1.3-0.7,2.6-1.6,4-1.9c2.7-0.6,5.3-1,8.1,0
		c2.4,0.9,3.8,2.4,4.5,4.8c0.1,0.3,0.1,0.7,0.3,1c1.5,3.4,0.1,5.5-3.7,5.4c-0.7,0-1.5,0.2-2.1-0.2c-1.8-0.1-3.5-0.2-5.3-0.3
		c0,0.2-0.1,0.5-0.1,0.7c0.3,0.3,0.6,0.6,0.7,0.7c-5.8,2.6-11.6,5.2-17.3,7.8c1.8,1.3,4,0.6,4.6,3.3c0.1,0.7,2,1.7,3.7,0.8
		c2.8-1.6,5.9-1.7,8.8,0c1.1,0.7,2,1.8,2.7,3c1.3,2.3,2.5,4.6,3.4,7.1c0.9,2.4-0.6,4.4-2.4,3.6c-3.9-1.8-7-0.1-10.2,1.7
		c-1.2,0.6-2.2,1.4-3.2,2c-1-0.9-1.9-1.8-2.9-2.7c-0.3,0.1-0.6,0.2-1,0.3c-0.3,2.8-0.6,5.6-0.7,8.4c0,0.3,1.7,0.7,2.7,1
		c0.1-0.3,0.2-0.6,0.3-0.8c-0.5-0.1-1-0.2-1.5-0.3c-0.1-0.2-0.1-0.4-0.2-0.6c2.2-0.8,4.4-2.1,6.7-2.4c3.8-0.4,7.7-0.4,11.5,0
		c1.6,0.2,3.3,1.7,4.5,3c1,1.1,1.4,2.8,1.9,4.3c1,3.1-1,5.8-4.3,5.9c-7.1,0.2-14,1.3-20.4,4.5c-3.1,1.6-5.6,4.4-8.5,6.5
		c-1.1,0.8-2.5,1.1-3.5,1.5c-3.6-4.3,0.9-7.6,0.6-12.3c-4.2,1.2-8.1,2.4-12.4,3.7c-0.2,1.3-1,2.4-3.2,1c-0.5-0.3-1.8-0.3-1.9,0
		c-1.3,2.6-3.9,1.5-5.9,2.2c-0.8,0.3-1.6,0.8-2.4,1.3c1,2.3-0.1,3.2-2.1,3.9c-2.3,0.8-2.9-1.2-4-2.3c-0.7-0.8-1.1-1.9-1.8-2.7
		c-2.4-2.6-3.2-5.7-2.8-9.2c0-0.5,0.9-0.8,1.1-1.3c0.4-0.8,1.1-1.8,1-2.5c-0.7-3.2,0.7-5.5,2.7-7.8c3.7-4.2,8.4-7.5,10.7-13.6
		c-2.2,1.3-4,2.3-5.9,3.4c-5.6-4-7.2-7.6-6.1-12.8c3.1-1.2,6.1-2.6,9.2-3.6c2.7-0.9,7.9,0.3,9.1,3c1.6,3.7,3.4,7.3,5,11
		c1.4,3.3-0.4,6.2-1.3,9.2c-0.1,0.4-0.9,0.7-1.4,1c-0.4,0.2-1,0.2-1.2,0.5C321.8,431.5,320.9,433.1,319.7,435z"/>
	<path d="M90.6,372.4c-3.3-3.6-6.2-6.9-9.1-10.2c-0.4,0.3-1,0.7-1.6,1.2c-0.3-0.1-0.6-0.2-0.8-0.4c0.3-1.1,0.6-2.2,0.9-3.4
		c0.1,0.1,0.2,0.2,0.4,0.2c-0.6-3.9-1.1-7.8-1.8-11.6c-0.1-0.6-0.5-1.2-1-1.7c-3-3.5-7.2-5-11.4-6.3c-1.4-0.4-3.3-0.2-4.6,0.5
		c-5.4,2.5-7.4,11.3-3.9,16c2.4,3.2,4.4,3.1,6.7-0.3c0.1-0.2,0.4-0.2,0.8-0.4c0.1,2.4-1.4,3.5-3.1,4c-1.1,0.3-2.8,0.2-3.7-0.4
		c-4.3-3.1-5.4-9.9-2.6-15.3c2.3-4.4,5.9-8.1,12.8-5.5c1.4,0.5,2.8,0.9,3.9,1.3c0.7-1.1,1.4-2.2,2.2-3.1c0.1-0.1,1.5,0.5,1.6,0.9
		c0.2,1.5,0,3,0,4.5c-0.3,0-0.5,0.1-0.8,0.1c1,0.8,2,1.6,3.1,2.5c2.2-4,2.3-4.6-0.4-7.8c-2.9-3.5-5.8-6.9-9.2-9.9
		c-1.8-1.6-4.4-2.4-6.6-3.6c-0.4-0.2-0.6-0.7-0.9-1c0.4-0.2,0.9-0.7,1.2-0.6c1.7,0.5,3.4,1.1,4.9,1.9c5.6,3,9,8.1,12.6,13
		c0.2,0.3,0.5,0.7,0.7,1c0.2-0.1,0.4-0.2,0.6-0.3c-0.7-1.1-1.4-2.1-2.1-3.2c-0.7-1.1-1.5-2.2-2.2-3.3c-1.1-1.5-2.3-3-3.1-4.6
		c-0.5-0.9-0.7-2.2-0.4-3.1c0.2-0.4,1.8-0.4,3.2-0.6c-2.8-3.4-5.5-6.9-8.4-10.3c-0.9-1.1-2.2-2-3-3.3c-0.5-0.9-0.9-2.9-0.5-3.2
		c1-0.7,2.8-1.2,3.7-0.8c1.9,1,4,2.4,4.9,4.2c2.6,5.4,4.7,11.1,7,16.7c-1.4,3.3,1.1,5.9,1.5,8.4c0.3-3.9,0.5-8.2,1-12.5
		c0.1-1.1,0.7-2.2,1.3-3.2c0.3-0.6,1.2-0.9,1.8-1.3c0.4,0.7,1.2,1.3,1.2,2c0,2.7-0.2,5.5-0.3,8.2c-0.1,1.1-0.1,2.3-0.2,3.9
		c4.6-2.3,7.9-0.7,10.3,3c2.2,3.4,2.3,7.3,1.6,11.2c-0.5,2.3-2.3,2.7-4.3,2c-1.1,4.4,0.5,10.3,3.3,11.3c-0.6,0.5-1.1,0.8-1.7,1.3
		c3.2,1,6.2,1.6,8.7-1.3c0.7-0.9,2.4-1.6,1-3.2c-0.1-0.1,0.2-0.6,0.5-0.8c3.5-3,2.8-7.1,2.4-10.8c-0.6-5.7-4.2-9.9-8.5-13.4
		c-7.9-6.4-11.9-14.6-10.7-24.9c0.5-3.9,1.4-7.7,2-11.6c-1.4,0.5-3.3,1.4-5.4,1.9c-1.3,0.3-2.8,0.5-4,0.1c-0.5-0.2-0.4-2.1-0.6-3.4
		c-1.2-0.2-2.9-0.2-4.1-0.9c-1-0.6-1.5-2.1-2.2-3.2c1.2-0.5,2.5-1.4,3.6-1.3c3,0.4,6,1.1,9,2c0.9,0.2,1.5,1.2,2.4,1.8
		c2.7,1.8,4.6-0.2,6.7-1.4c0.8-0.4,1.6-0.9,2.7-1.5c-3.6-1.5-4.9-4.7-5.5-8.1c-0.3-1.8,0-3.9,0.7-5.6c0.4-1,2.1-2.1,3.3-2
		c1.1,0,2.2,1.3,3.2,2.2c0.4,0.4,0.5,1.3,0.6,2c0.4,3.3-1.3,4.7-4.5,3.8c0.3,2.8,1.7,4.4,4.1,5.1c3.1,0.9,6.2,1.7,9.3,2.6
		c0.4,0.1,0.7,0.6,1,1c0.1,0.1-0.1,0.3-0.1,0.5c0,5,0,9.9-0.5,15.2c-2.7-4-5.9-6.1-10.9-4.2c-0.6,1.7-2.3,4.2-1.9,6.4
		c0.6,3.5,1.3,7.1,4.7,10c4.4,3.8,8.5,8.4,11.4,13.4c3.3,5.5,3.8,12.2,3.5,18.7c-0.1,2.2,0,4.4-0.2,6.6c-0.1,1.4-0.6,2.7-1,4.4
		c0.1,0.1,0.6,0.5,0.7,0.5c-1.7,2.1-3.3,4.1-4.9,5.9c-2.3,2.6-4.1,5.7-7.3,7.4c-1.5,0.9-3,1.6-4.4-0.2c-0.1-0.1-0.3-0.4-0.3-0.3
		C96.8,375.4,93.9,371.4,90.6,372.4z M90.8,354.5c-0.5-4.8-1.3-9.4,0.3-14c0.5-1.4,0.7-3.6,2.8-3.1c0.6,0.1,0.8,2.3,1.2,3.5
		c0.1,0.2,0.1,0.5,0.1,0.6c1,0.1,2,0.2,3.4,0.4c-0.7-2.1-1.1-4-1.9-5.6c-1.4-2.7-4.3-3.8-7.2-3c-1.5,0.4-2.3,1-1.9,2.8
		c0.7,3.6,1.3,7.2,1.9,10.9c0.1,0.9-0.3,1.8-0.5,2.7c-0.2,0-0.5,0-0.7-0.1C89.1,351.3,90,352.9,90.8,354.5z M88.4,355.9
		c0.6-1.6-2.9-8.8-6.7-13.4c-0.1,2-0.8,3.9-0.2,4.9C83.5,350.4,86,353.1,88.4,355.9z M86.4,363.7c-0.8-3.1-1.6-6-2.2-8.5
		C81.8,358.6,84,361.1,86.4,363.7z M84.1,339.1c-1.8,2.7,1,3.9,1.9,5.8C85.4,342.9,84.8,341,84.1,339.1z"/>
	<path d="M224.2,397.4c-1.1,4.1-2,7.3-3.1,11.2c-0.6-2.1-3.9-2-2.4-4.9c0.4,0.1,0.7,0.1,1.1,0.2c0.4,0.1,0.7,0.3,1.1,0.4
		c0-0.4,0.3-1.1,0-1.3c-1.5-1.8-1.4-3.6-0.6-5.7c0.6-1.5,0.5-3.3,1-4.9c0.4-1.5,1-3,1.6-4.6c3.4,1.6,5,4.8,8.5,4.4
		c1.5,3.1,3.4,6,4.3,9.3c0.9,3.1,2.3,6.4,0.1,8.9c1.1,1,2,1.4,2.1,2c0.5,4.6,0.8,9.1,1.2,14c2.1-2.6,1.9-7,6.4-7.5
		c0,1.4,0,2.5,0,3.9c-0.8-0.3-1.5-0.6-2.1-0.8c-0.1,0.1-0.2,0.2-0.3,0.4c-1.1,1.9,2,3.8-0.3,6.1c-1.1,1.2-0.4,4.1-0.3,6.2
		c2.4-4.7,4.5-9.5,4.1-15c-0.1-1.7-0.4-2.7-3-2.3c0.7-1.3,1.6-2.4,2.1-3.8c1-2.6,1.9-5.3,2.6-7.9c1.6-6.2,3-12.5,4.7-18.8
		c0.2-0.9,1.2-1.7,1.8-2.6c2.5,1.4,4.9,2.5,7.1,3.8c3.2,2,3.8,3.9,2.9,7.5c-1.4,5.8-2.5,11.6-3.8,17.4c-0.2,0.9-0.9,1.7-0.9,2.4
		c0,2.8,0.5,5.8-0.1,8.5c-1,4.8-0.9,9.6-0.4,14.3c0.6,6.2,1.8,12.3,3.4,18.3c0.9,3.5,3.1,6.6,4.9,9.9c0.7,1.3,1.9,2.4,2.4,3.8
		c1.1,2.7,2.9,4.5,5.6,5.5c1.9,0.7,1.8,0.9,1.2,3.2c-5.8-1.4-11.3-3-15.2-8.1c-1-1.4-2.6-2.4-3.7-3.7c-4.9-5.6-7-12.5-8.9-19.4
		c-1.1-4.2-1.8-8.6-2.6-12.7c-1.3,2.2-2.7,4.4-3.9,6.7c-0.4,0.8-0.1,1.9-0.2,2.9c-0.3,2.1-0.9,4.1-1.2,6.2c-0.2,2-0.7,3.6-3,3.8
		c-0.5,0.1-0.9,0.7-1.4,0.9c-1.1,0.5-2.1,1.5-3.3-0.2c-0.8-1.3-2-2.7-3.6-0.6c-0.8-1-1.4-1.9-2.1-2.8c-1.9-2.2-2.1-4.9-2.1-7.7
		c0.1-9.2,0.2-18.4,0.1-27.6c-0.1-5.3-0.5-10.6-0.8-15.8C225.1,400,224.6,399,224.2,397.4z"/>
	<path d="M139.2,371c0-4.4,0-9.4,0-14.4c0-9.6,0-19.3-0.1-28.9c0-1.4,0.4-2.1,1.5-3.1c2.4-2.1,4.3-4.9,6.5-7.3
		c4-4.5,12.7-4.8,17-0.8c0.7,0.6,1.5,1.1,2.6,1.9c0.1-1.9,0.2-3.3,0.3-5.3c0.7,1,1,1.5,1.5,2.1c0.7-0.6,1.6-1.4,2.6-2.3
		c1,0.7,2.2,1.5,3.5,2.4c1.4-1.2,3-2.6,4.5-4c0,0.3,0.1,0.6,0.1,0.9c0.9,0.4,1.8,1,2.8,1.2c9.1,2,14.5,10.5,14.9,19
		c0.5,11.4,0.5,22.8,0.8,34.2c0.1,5.4,0.1,5.4-5.4,5.4c-3.7,0-3.7,0-3.7-3.7c0-10.4,0.2-20.9-0.1-31.3c-0.1-4.3-1.5-8.3-5.6-10.8
		c-0.8-0.5-1.8-0.7-3-1.2c0,1.3,0,2.1,0,3.2c-0.9,0.1-1.7,0.1-2.5,0.2c-2.4,0.2-3.6,1.2-3.1,4c0.2,1.2-1,2.7-1,4.1
		c-0.2,3.2,1.2,3.9,4.1,2.6c0.5-0.2,1.2-0.1,1.8-0.1c0,0.5,0,1.1-0.1,1.6c-0.4,1.7-0.9,3.4-1.4,5.3c-0.8,0-1.9,0.1-3.1,0.2
		c1.3,1.3,2.4,2.7,3.6,3.8c2.8,2.4,2.2,5.1,1.1,8c-0.1,0.2-0.1,0.3-0.2,0.5c-0.5,3.1-2,5.1-5.9,3.9c0,3.6,0,6.9,0,10.1
		c-3.4,0-6.4,0-9.3,0c-0.3-8.6,1.6-16.7-1.6-24c0.8-1.8,1.5-3.3,2.3-5c-2.1-0.5-3.6-0.8-5.4-1.2c1.9-1.9-0.4-6.3,4.6-6.1
		c-0.5-2-0.5-4.3-1.7-5.7c-1.7-2-3.3-4.7-6.4-4.9c-1.3-0.1-3.4-0.7-3.3,2c0,0.2-0.7,0.3-0.9,0.6c-0.6,0.7-1,1.6-1.5,2.4
		c0.8,0.1,1.7,0.2,2.5,0.2c0.3,0,0.5,0,1.3,0c-0.3,1.1-0.6,2-0.9,2.9c-1.3-0.5-2.6-0.9-4.7-1.6c0.2,2.9,0.6,5.5,0.7,8.2
		c0,3-0.4,6.1-0.5,9.1c-0.1,3,0,6,0,8.3c1.6,2,2.8,3.5,4.1,5.1c-1.7,0.5-2.8,0.9-4.4,1.4c0.4,1.3,0.7,2.8,1.1,4.1c0,1.2,0,2.4,0,3.2
		c-1.3,1-2.6,2-3.5,2.6C143.6,373,141.7,372.1,139.2,371z"/>
	<path d="M337.4,371c-1.1,3.2-4.5,4.4-7.5,2.7c-0.2-0.1-0.5-0.5-0.6-0.4c-3,1.8-3-1.1-3.6-2.1c-1.6,0-2.7,0-4.3,0
		c-0.1,0.6-0.3,1.8-0.3,2.9c0,3-0.1,6,0,8.9c0.2,4.6,0.5,9.2,0.8,13.8c0.1,1.6-0.4,2.1-1.9,2c-2.2-0.1-4.5,0-7.1,0
		c0.1-5.4-0.1-11.3-1.4-17.4c-0.2,0.1,0.3-0.2,0.9-0.5c-0.8-0.3-1.4-0.6-2.3-1c2.7-2.3,2.6-3.1,1.1-6.5c-0.5-1.1-2.2-3.3,0.9-4.1
		c0.4-0.1,0.7-1.6,0.7-2.4c-0.1-6.3-0.3-12.7-0.3-19c0-4.9,0.3-9.8,0.3-14.6c0-2.4-0.4-4.9-0.5-6.7c2.3-2.5,4.6-4.7,6.6-7
		c4-4.7,9.2-6.8,15-5.6c4.2,0.9,7.8,3.8,10.4,7.4c6,8.1,7.5,17.2,6.6,27.1c-0.6,6.7-2.7,12.7-6.6,18c-1.3,1.8-3.3,3.2-5,4.6
		C338.9,371.6,338,371.2,337.4,371z M339.4,338.8c0.7-3.4,0.8-6.2-1.3-8.9c-2.1-2.7-5.7-4.8-8.5-4.2c-2.7,0.6-8.2,4.9-8.1,8.1
		c0.1,6.8,0,13.6,0.1,20.4c0,0.7,1,1.8,1.7,2c2.1,0.6,1.6,1.6,0.6,3c1-0.2,2-0.3,3-0.5c-0.9-2.1-1.8-4.1-2.7-6.1
		c0.2-0.3,0.5-0.5,0.7-0.8c1.7,0.6,3.3,1.2,5.1,1.9c-0.1,1.5,0.1,3-0.5,4.1c-0.8,1.6-1.8,3-0.4,4.5c1.2,1.2,4.4,0.5,5.6-1.1
		c0.4-0.4,0.9-0.7,1.5-1.1c-1.5-0.7-3.1-1.4-4.6-2.1c0.1-0.3,0.2-0.6,0.4-1c1.5,0.5,3,1.1,4.6,1.3c0.7,0.1,2.1-0.1,2.3-0.5
		c1.6-3.7,3.7-7.3,3.3-11.5c-0.2-1.8-1.2-3.7-0.9-5.3C341.7,339.4,341.2,338.9,339.4,338.8z"/>
	<path d="M305.6,343.7c-0.5,1.2-1.1,2.1-1.1,2.9c-0.1,4.5,0,9,0.1,13.5c0.1,3.6,0.2,7.1,0.5,10.7c0.1,1.2,0.7,2.3,1.2,4
		c-2.4-0.4-4.3-0.7-5.4-0.8c-2,0.2-3.3,0.2-4.5,0.4c-2.7,0.5-5.4-2-8.3,0.4c-0.8,0.7-3.3,0.1-4.6-0.6c-3.4-1.8-7-3.5-9.6-6.2
		c-2.5-2.6-4-6.3-5.5-9.6c-3.5-7.5-2.3-15.5-1.6-23.4c0.1-1.5,0-3,0-4.8c0.3,0,0.8,0.1,1.3,0.2c0.8-1.9,1.5-3.9,2.5-5.7
		c0.6-1.2,0.8-3.4,3.2-2.5c0.2,0.1,1.1-1.4,1.4-2.3c0.9-2.3,6.3-6,8.8-6.2c7.9-0.5,13.1,3.7,17.4,9.6c0.4,0.6,1,1.4,1.7,1.5
		c2.2,0.6,2.1,2,2,3.9c-0.3,4.5-0.4,9-0.4,13.5C304.5,342.8,305.3,343.3,305.6,343.7z M292.1,352.5c3.1-0.4,3.4-2.1,3.3-4.2
		c-0.1-3.4-0.3-6.9,0-10.3c0.3-3.8-0.7-6.7-3.5-9.4c-4-4.1-8.8-3.5-12.1,0.2c-4.1,4.5-5.2,10.1-5.1,15.9c0,2.8,1,5.6,1.5,8.3
		c0.7,4.1,3.3,7,6.7,8.9c1.4,0.8,3.5,0.7,5.2,0.4c4-0.5,5.1-4.3,7.2-6.9C294.4,354.5,293.4,353.7,292.1,352.5z"/>
	<path d="M388.8,371.2c-2.4,0.6-4.3,1-6.2,1.5c-8,2.2-13.3,0-18.7-6.1c-5.6-6.3-7.5-13.8-7.8-21.6c-0.3-9.6,1.6-18.9,8.6-26.2
		c0.8-0.8,2-1.2,3.2-1.6c2-3.7,6.4-5.3,10.6-3.6c2.2,0.9,4.5,1.4,6.6,2.4c1.2,0.6,2.2,1.6,3,2.7c2.1,2.8,4.2,5.7,6.1,8.7
		c0.4,0.7,0.2,2.4-0.3,3.1c-3.5,4.5-7.2,8.8-10.8,13.2c-2.1,2.5-4.2,5-6.3,7.4c-1.5,1.7-3.2,3.3-4.5,5.2c-1.9,2.8-1.5,4.3,1.7,5.5
		c3.9,1.4,7.4,1.1,10.6-2.3c1.1-1.1,2.3-2.2,3.4-3.2c0.2,0.1,0.4,0.3,0.6,0.4C388.8,361.5,388.8,366.5,388.8,371.2z M364.9,348.1
		c0.3,0.1,0.7,0.2,1,0.2c1.3-1.7,2.7-3.3,4-5c3.7-4.6,7.4-9.2,11.2-13.6c1.3-1.5,1-2.6-0.3-3.5c-2.7-1.8-6.7-2.5-9.7,0.6
		c-2.8,2.9-4.8,6.2-5.5,10.2C365.1,340.7,365.1,344.4,364.9,348.1z"/>
	<path d="M259.8,313.3c2.3,2.4,1.2,5.4,1.5,8.1c0.2,1.9,0.8,3.8,0.9,5.7c0,1-0.6,2.1-1.3,2.9c-0.2,0.2-1.5-0.2-2.2-0.7
		c-0.9-0.7-1.5-1.8-2.5-2.3c-0.7-0.4-1.8-0.3-3.4-0.5c-1.1-1.8-2.1-1.6-7.1,2.7c0.6,0.6,1.2,1.2,2.5,2.3c-1.6-0.3-2.5-0.4-3.5-0.6
		c-2.4,1.9-3.1,3.8-1.8,6c-3.1,0.8-2.3,3.5-2.6,5.6c-0.8,6.8,2.2,12.3,6.4,17.2c1.6,1.8,3.3,1.3,4.4-1c2.3,3.6,3.3,3.5,6.8,0.6
		c1-0.8,1.8-1.7,3.3-3c0,5.7,0,10.6,0,15.9c-1.2,0.2-2.7,0.4-4.5,0.6c-0.1,0.2-0.2,0.9-0.4,1.9c-3.3-0.5-6.5-3-9.8-0.3
		c-3.3-3.1-6.5-6.1-9.8-9.2c-0.2-0.2-0.6-0.4-0.7-0.7c-1.5-5.9-3.7-11.8-4.1-17.8c-0.5-6.9,0.5-13.8,3.3-20.4
		c0.7-1.6,0.4-3.5,0.9-5.2c0.2-0.8,1.3-2.1,1.8-2c2.7,0.6,2.7-1.1,2.8-2.9c0-1.2,0-2.5,0-3.7c0.3-0.1,0.7-0.1,1-0.2
		c0.5,1.6,1,3.2,1.4,4.3c0.9-0.9,1.7-2.6,2.9-2.9c1.9-0.5,4.2-1.9,5.9,0.5c1.4,1.9,2.5,2.8,4.3,0.3
		C256.8,314,258.3,313.9,259.8,313.3z"/>
	<path d="M224.6,313.4c0,4,0,8.3,0,13.4c-1-1-1.7-1.5-2.3-2.1c-1.8-1.8-3.7-3-6.4-2.1c-2.4,0.8-2.4,2.9-2.5,5
		c-0.2,2.7,0.3,4.7,2.9,6.2c2.4,1.3,5,2.7,6.5,4.8c2.1,2.9,4.9,5.5,5.3,9.6c0.5,6.7,0.6,13.2-3.5,19c-2.4,3.4-8.9,5.6-12.9,4.3
		c-2-0.6-4.1-0.7-6.5-1.1c0-4.6,0-9.7,0-15.5c1.3,1.5,2,2.5,2.9,3.5c2.4,2.6,5.8,3.4,8.3,2.2c2.5-1.2,4.1-4.9,3.3-8.2
		c-0.7-3-2.5-5.3-5.1-7c-5.3-3.4-9.3-7.8-9.6-14.4c-0.1-3.8-0.5-7.7,1-11.5c2.5-6.1,7.2-8.6,13.6-6.8
		C221.2,313,222.7,313.1,224.6,313.4z"/>
	<path d="M463.8,478.9c0.5,4.2-0.5,7.9-4.1,10.6c-1.3,1-2.5,2.1-3.9,3c-3.6,2.4-7,3-11.3,0.6c-3.8-2.1-6.3-5-8-8.7
		c-2.9-6.2-5.8-12.5-8.1-18.9c-2.2-6.3-3.7-12.8-5.4-19.2c-0.6-2.2,2.7-5.7,5.6-6.4c0.8-0.2,1.6-0.4,2.9-1.2c1,1.9,2.2,3.8,2.9,5.8
		c3.7,11,7.4,22,13.1,32.2c1.4,2.6,3.5,4.8,5.6,7c1.4,1.5,2.8,1.4,4.3-0.4c1.5-1.9,3.6-3.3,5.5-5
		C463.2,478.4,463.5,478.6,463.8,478.9z"/>
	<path d="M280.2,416.5c0.8,2.2,1.8,4.4,2.4,6.7c0.2,0.9-0.3,2.1-0.7,3c-2,4.6-3.2,9.5-3.5,15c4.1-2,3.8-5.8,4.6-8.9
		c0.8-3.2,1.5-6.6,1.6-9.9c0-2.9-1-5.9-1.7-9.4c1.2-1.7,2.6-1.8,5.3-0.4c5.4,2.8,7.1,7.6,7.1,13.1c0,4.3-0.6,8.6-1.3,12.9
		c-0.2,1.3-1.5,2.4-2.2,3.6c-1,1.6-1.8,3.3-2.9,4.7c-0.6,0.7-1.1,2.8-2.9,1.3c-0.5,0.6-1.1,1.2-1.3,1.9c-1.4,4.5-1.7,4.3-6.5,4.2
		c-3.5-0.1-6.2-1.1-8.4-3.5c-1-1.1-1.4-2.7-2-4.1c-0.2-0.4,0.1-1.1-0.2-1.3c-2.7-1.9-0.8-4-0.3-6.1c1.1-5,2-10,3.4-14.8
		c0.6-2.1,2.4-3.8,3.8-5.6c0.2-0.3,1.2,0,1.8,0C277.7,418.5,279.9,419.8,280.2,416.5z"/>
	<path d="M399.3,419.5c-0.2-1.7-0.4-3.4-0.6-5.7c-6.3,9.3-9.2,19.1-8.6,30.5c5.4-0.3,10.6-0.6,15.8-0.8c-0.1,4.6-1.1,9-6.5,10.7
		c-1.2,3.2-4.1,2.4-6.2,2c-2.1-0.4-5-1.4-5.8-3c-1.5-3.1-5.2-3.3-6.5-6.6c-2.5-6.2-3.9-12.4-2.9-19c0.5-3.5,3.1-5.2,6.4-6.1
		c-1-1.7-0.3-3.9,1-5.1c0.9-0.8,1.1-2.2,1.6-3.4c-0.4-0.2-0.8-0.4-1.2-0.5c-0.6,1.2-1.2,2.3-1.8,3.5c-0.3-0.1-0.5-0.2-0.8-0.3
		c0.8-1.9,1.7-3.8,2.6-5.7c0.1-0.2,0.6-0.4,0.7-0.3c2.5,1.6,3.4-1.7,5.4-1.8c0.3,0,0.7-0.6,0.8-0.9c0.3-1.9,1.3-2.9,2.9-2.1
		c3,1.5,6.3,2.7,8.1,6c1.2,2.1,1.1,4.1,0.2,6.9c-0.7-1.8-1.1-3-1.6-4.2c-0.3,0-0.6,0-0.9,0c-0.1,1.1-0.1,2.3-0.3,3.4
		c-0.2,0.9-0.6,1.8-0.9,2.8C399.9,419.6,399.6,419.6,399.3,419.5z M385.1,421.6c0.2,0.2,0.3,0.3,0.5,0.5c3.1-3.6,6.1-7.1,9.1-10.6
		c-0.6-0.4-1.5-0.8-2.7-1.5C389.8,413.8,387.4,417.7,385.1,421.6z"/>
	<path d="M149.2,426c1.6-0.8,3.5-2,5.4-2.7c2-0.8,3.6,0.3,4.8,1.8c5.9,7.4,4.6,13.5,0.4,21.5c-2.1,4-5.2,5.5-9.9,3.8
		c0,4.4,0,8.4,0,12.4c-4.9,0.3-5.7,0.2-5.8-4.1c-0.2-7,0.4-14.1,0.6-21.1c0.1-4.7,0-9.4,0.2-14c0.1-3.2-0.4-6.4,0.3-9.7
		c0.5-2.6-0.1-5.5-0.1-8.3c-0.1-3.7,0.1-7.4-0.1-11.1c-0.1-3-0.7-6.1-1-9.1c-0.3-2.4-0.6-4.9-0.5-7.3c0-1,0.7-2.6,1.6-3
		c1.5-0.7,3.5-1.3,4.8,0.5c0.5,0.6,0.9,1.5,0.9,2.3c-0.5,11.5-1.1,23-1.6,34.5C149.1,417.1,149.2,421.7,149.2,426z M149,446.3
		c0.4,0.2,0.8,0.5,1.2,0.7c0.8-0.5,1.8-0.8,2.5-1.4c3.8-4.1,4.8-9.2,5.7-14.5c0.1-0.7-0.1-1.6-0.4-2.3c-1-2.6-2.6-2.9-4.4-0.7
		c-0.8,0.9-1.6,2-1.8,3.1C150.7,436.3,149.9,441.3,149,446.3z"/>
	<path d="M180.7,444.4c-1.4,2.5-2.2,4.4-3.5,5.9c-2.2,2.8-4.8,2.1-6.2-1.2c-3-6.8-2-14.1-2.9-21.2c-0.4-3.2-0.6-6.5-0.7-9.7
		c0-0.9,0.1-2.2,0.7-2.7c0.9-0.9,2.2-1.3,3.4-1.9c0.4,0.9,1.2,1.9,1.2,2.8c0.3,7.6,0.3,15.2,0.7,22.8c0.1,2.8,0.9,5.5,2,8.4
		c0.5-1.2,1.2-2.4,1.5-3.7c1.7-8.3,3.1-16.6,4.9-24.8c0.4-2,1.7-3.9,2.9-5.7c0.3-0.5,1.8-0.7,2.3-0.3c0.5,0.4,0.7,1.6,0.6,2.4
		c-0.2,2.3-0.9,4.5-1,6.8c-0.6,14.8-1.1,29.6-1.5,44.4c0,1.1,0.4,2.2,0.9,3.2c1.3,2.8-0.5,6.8-3.5,7.2c-0.4,0.1-1.3-0.7-1.4-1.1
		c-0.3-1.3-0.4-2.6-0.4-3.9c0-6.6,0-13.2,0-19.8C180.7,449.8,180.7,447.4,180.7,444.4z"/>
	<path d="M132.8,371.8c-3.2,0-6,0-9.1,0c0.1-1.8,0.3-3.5,0.3-5.1c-0.1-16.3-0.2-32.7-0.5-49c0-1.7,0.4-2.2,2-2.2
		c7.7,0,6.6-0.5,6.6,6.4c0.1,9,0.1,18,0.1,27c0.1,6.7,0.2,13.4,0.4,20.1C132.8,369.9,132.8,370.8,132.8,371.8z"/>
	<path d="M218.9,427.2c-0.5,3.9-1,7.6-1.5,11.2c0.3,0.1,0.6,0.1,0.9,0.2c0.4-2.2,0.8-4.5,1.2-6.7c0.3,0,0.5,0,0.8,0
		c0.1,1.8,0.2,3.5,0.3,5.7c0.3-1.1,0.5-1.8,0.6-2.5c0.2,0,0.5,0,0.7,0c0,0.9,0.4,1.9,0.1,2.7c-1.7,4.6-0.3,9.1,0.1,13.6
		c0.4,3.5-0.2,4.7-3.8,4.3c-1.3-0.1-2.6-0.4-3.9-0.7c-3.2-0.6-4.8-4.8-3.9-8c1-3.7,2-7.3,2.9-11c0.1-0.6,0.1-1.3-0.2-1.8
		c-1.1-2.8,0.4-5.1,1.7-7.2C216.2,424.7,217.5,427.4,218.9,427.2z"/>
	<path d="M133.4,301.2c-0.7,1.9-1.1,4.1-2.3,5.7c-2.1,2.9-5.2,2.5-7-0.6c-1.8-3-1.9-6.2-0.5-9.4c1.1-2.3,2.7-3.8,5.4-3.2
		c2.5,0.6,3.3,2.7,3.8,4.9c0.2,0.8,0,1.6,0,2.4C133,301.1,133.2,301.2,133.4,301.2z"/>
	<path d="M74,278.4c2.2,2,4,4.4,6.4,5.7c2.7,1.4,5.9,1.9,8.9,2.7c1.8,0.5,3.6,0.7,5.3,1.2c0.4,0.1,0.6,0.9,1,1.4
		c-0.5,0.2-1.1,0.8-1.5,0.7c-5.3-1.1-11.1-1.1-15.6-4.7c-1.8-1.4-3.1-3.5-4.6-5.3C73.8,279.7,74,278.9,74,278.4z"/>
	<path d="M72.1,348.2c1.1-1,1.9-1.7,2.7-2.4c0.6,0.9,1.7,1.8,1.5,2.6c-0.2,1-1.3,1.9-2.1,2.8C73.7,350.3,73,349.5,72.1,348.2z"/>
	<path d="M87.1,269c1.3,0,2.6-0.1,3.9-0.1c0,1.3,0.4,3.4-0.2,3.8c-2.7,1.6-1.9-2.5-3.9-2.4C87.1,269.8,87.1,269.4,87.1,269z"/>
	<path d="M74.4,268.2c-0.2,3.2-0.4,6.4-0.6,9.4C71.8,275.8,72,269.9,74.4,268.2z"/>
	<path d="M403.8,420.5c-0.5,1.7-1.1,3.5-1.7,5.4c-0.7-0.4-1.6-0.8-2.3-1.4c-0.3-0.2-0.4-1.1-0.2-1.2
		C400.9,422.2,402.3,421.4,403.8,420.5z"/>
	<path d="M78.8,356.4c-0.8,0.9-1.3,1.5-1.8,2.1c-0.5-0.7-1.4-1.4-1.5-2.2c0-0.6,0.9-1.3,1.4-2C77.5,354.9,78.1,355.6,78.8,356.4z"/>
	<path d="M162.5,311.4c1.1,0.8,2.1,1.5,3,2.2c-0.4,0.3-1,0.9-1.3,0.8C163.1,314.1,161.2,314.3,162.5,311.4z"/>
	<path d="M386.5,408.5c1.1-1.3,2.2-2.5,3.3-3.8c0.2,0.2,0.5,0.4,0.7,0.6C389.2,406.5,389.7,409.1,386.5,408.5z"/>
	<path d="M332.9,351.5c1.5,1.1,1.8,3.8,0.6,4.3c-0.3,0.1-1.3-0.7-1.3-1.1C332.2,353.7,332.6,352.7,332.9,351.5z"/>
</g>
</svg>
